
    <svg width="800" height="250" viewBox="0 0 800 250" xmlns="http://www.w3.org/2000/svg">
      <defs>
        <style>
            /* System Fonts mimicking Apple San Francisco */
            .sf-pro { font-family: -apple-system, BlinkMacSystemFont, "Segoe UI", Roboto, Helvetica, Arial, sans-serif; }
            .bold { font-weight: 700; }
            .medium { font-weight: 500; }
            .regular { font-weight: 400; }
            
            /* Colors */
            .bg-card { fill: #1C1C1E; } /* iOS Dark Surface */
            .border { stroke: rgba(255,255,255,0.1); stroke-width: 1; }
            .text-primary { fill: #FFFFFF; }
            .text-secondary { fill: #98989D; }
            .text-accent { fill: #0A84FF; } /* Apple Blue */
            
            /* Status Animation */
            @keyframes pulse {
                0% { opacity: 1; r: 4; }
                50% { opacity: 0.6; r: 5; }
                100% { opacity: 1; r: 4; }
            }
            .dot-anim { animation: pulse 3s infinite ease-in-out; }
        </style>
        
        <rect id="widget-shape" width="240" height="220" rx="22" />
        <rect id="wide-widget-shape" width="500" height="220" rx="22" />
      </defs>

      <g transform="translate(10, 15)">
          <rect width="240" height="220" rx="22" class="bg-card border" />
          
          <circle cx="30" cy="30" r="4" fill="#30D158" class="dot-anim" />
          <text x="45" y="34" class="sf-pro medium text-secondary" font-size="12">Active Now</text>
          
          <text x="120" y="110" class="sf-pro bold text-primary" font-size="48" text-anchor="middle" letter-spacing="-1">12:11</text>
          <text x="120" y="135" class="sf-pro medium text-accent" font-size="14" text-anchor="middle">Thursday, 22 January</text>
          
          <rect x="20" y="170" width="200" height="1" fill="#38383A" />
          <text x="120" y="195" class="sf-pro regular text-secondary" font-size="12" text-anchor="middle">Writing code...</text>
      </g>

      <g transform="translate(270, 15)">
          <rect width="500" height="220" rx="22" class="bg-card border" />
          
          <text x="30" y="35" class="sf-pro medium text-secondary" font-size="11" letter-spacing="1">LATEST ACTIVITY</text>
          <g transform="translate(460, 30)">
             <path d="M5 0C2.2 0 0 2.2 0 5c0 2.2 1.4 4.1 3.4 4.8.2 0 .3-.1.3-.2v-.9c-1.4.3-1.7-.6-1.7-.6-.2-.6-.5-.8-.5-.8-.4-.3 0-.3 0-.3.5 0 .8.5.8.5.5.8 1.3.6 1.6.4.1-.4.2-.6.4-.8-1.1-.1-2.3-.6-2.3-2.5 0-.6.2-1 .5-1.4 0-.1-.2-.6.1-1.3 0 0 .4-.1 1.4.6.4-.1.9-.2 1.3-.2.4 0 .9.1 1.3.2 1-.7 1.4-.6 1.4-.6.3.7.1 1.2 0 1.3.3.4.5.8.5 1.4 0 1.9-1.2 2.4-2.3 2.5.2.2.4.6.4 1.2v1.8c0 .1.1.3.4.2C8.6 9.1 10 7.2 10 5c0-2.8-2.2-5-5-5z" fill="#38383A" transform="scale(2)"/>
          </g>
          
          <text x="30" y="80" class="sf-pro bold text-primary" font-size="28">andzcr</text>
          
          <rect x="30" y="100" width="68" height="24" rx="12" fill="rgba(10, 132, 255, 0.15)" />
          <text x="64.0" y="116" class="sf-pro medium text-accent" font-size="12" text-anchor="middle">Python</text>
          
          <text x="30" y="150" class="sf-pro regular text-secondary" font-size="14" width="440">My Personal ReadMe File Config</text>
          
          <g transform="translate(30, 185)">
              <rect width="440" height="1" fill="#38383A" />
              <text y="20" class="sf-pro regular text-secondary" font-size="12" font-family="monospace">git commit: <tspan class="text-primary">"Update README.md"</tspan></text>
          </g>
      </g>
      
    </svg>
    